<svg width="797" height="135" viewBox="0 0 797 135" fill="none" xmlns="http://www.w3.org/2000/svg">
<path d="M177.318 40.0231H196.451C201.428 40.0231 205.696 40.4845 209.255 41.4073C212.815 42.3302 216.045 44.0605 218.945 46.5984C226.493 53.0583 230.267 62.8801 230.267 76.0637C230.267 80.4143 229.888 84.3859 229.13 87.9784C228.372 91.5709 227.202 94.8174 225.62 97.7178C224.037 100.585 222.01 103.156 219.539 105.43C217.594 107.177 215.468 108.578 213.161 109.632C210.854 110.687 208.365 111.429 205.696 111.857C203.059 112.286 200.076 112.5 196.747 112.5H177.615C174.945 112.5 172.935 112.104 171.583 111.313C170.232 110.489 169.342 109.352 168.914 107.902C168.518 106.419 168.32 104.507 168.32 102.167V49.0209C168.32 45.8568 169.029 43.5662 170.446 42.1489C171.863 40.7317 174.154 40.0231 177.318 40.0231ZM183.004 51.6411V100.832H194.127C196.566 100.832 198.478 100.766 199.862 100.635C201.246 100.503 202.68 100.173 204.163 99.6459C205.646 99.1185 206.932 98.377 208.019 97.4211C212.93 93.2683 215.386 86.1162 215.386 75.9648C215.386 68.8127 214.298 63.4569 212.123 59.8973C209.98 56.3378 207.327 54.0801 204.163 53.1243C200.999 52.1355 197.176 51.6411 192.693 51.6411H183.004Z" fill="#04245E"/>
<path d="M279.903 89.6099H253.503C253.536 92.675 254.146 95.3777 255.332 97.7178C256.552 100.058 258.15 101.821 260.128 103.008C262.138 104.194 264.346 104.787 266.752 104.787C268.367 104.787 269.834 104.606 271.152 104.244C272.504 103.848 273.806 103.255 275.058 102.464C276.31 101.64 277.464 100.766 278.519 99.8436C279.573 98.9208 280.941 97.6683 282.622 96.0863C283.314 95.493 284.303 95.1964 285.588 95.1964C286.973 95.1964 288.093 95.5754 288.95 96.3335C289.807 97.0916 290.236 98.1627 290.236 99.547C290.236 100.766 289.758 102.2 288.802 103.848C287.846 105.463 286.396 107.029 284.451 108.545C282.54 110.028 280.117 111.264 277.184 112.253C274.283 113.241 270.938 113.736 267.148 113.736C258.48 113.736 251.74 111.264 246.927 106.32C242.115 101.376 239.709 94.6691 239.709 86.1986C239.709 82.2106 240.303 78.5192 241.489 75.1244C242.676 71.6967 244.406 68.7633 246.68 66.3243C248.954 63.8854 251.756 62.0232 255.085 60.7378C258.414 59.4194 262.105 58.7603 266.159 58.7603C271.432 58.7603 275.948 59.8809 279.705 62.1221C283.495 64.3303 286.33 67.1978 288.209 70.7244C290.087 74.251 291.027 77.8435 291.027 81.502C291.027 84.8967 290.054 87.105 288.11 88.1267C286.165 89.1155 283.43 89.6099 279.903 89.6099ZM253.503 81.9469H277.975C277.645 77.3326 276.393 73.8884 274.218 71.6143C272.075 69.3071 269.241 68.1536 265.714 68.1536C262.352 68.1536 259.584 69.3236 257.408 71.6637C255.266 73.9708 253.964 77.3986 253.503 81.9469Z" fill="#04245E"/>
<path d="M315.845 94.2571V105.529C315.845 108.265 315.202 110.325 313.917 111.709C312.631 113.06 311 113.736 309.022 113.736C307.078 113.736 305.479 113.044 304.227 111.659C302.974 110.275 302.348 108.232 302.348 105.529V67.9558C302.348 61.8914 304.54 58.8591 308.923 58.8591C311.165 58.8591 312.78 59.5677 313.768 60.985C314.757 62.4022 315.301 64.4951 315.4 67.2637C317.015 64.4951 318.663 62.4022 320.344 60.985C322.057 59.5677 324.332 58.8591 327.166 58.8591C330.001 58.8591 332.753 59.5677 335.422 60.985C338.092 62.4022 339.427 64.2809 339.427 66.621C339.427 68.2689 338.85 69.6367 337.697 70.7244C336.576 71.7791 335.356 72.3064 334.038 72.3064C333.544 72.3064 332.341 72.0098 330.429 71.4165C328.55 70.7903 326.886 70.4772 325.436 70.4772C323.458 70.4772 321.843 71.0045 320.591 72.0592C319.338 73.0809 318.366 74.6135 317.674 76.657C316.982 78.7004 316.504 81.1394 316.24 83.9739C315.977 86.7754 315.845 90.2031 315.845 94.2571Z" fill="#04245E"/>
<path d="M391.733 87.2863V105.232C391.733 108.067 391.09 110.193 389.805 111.61C388.519 113.027 386.822 113.736 384.713 113.736C382.669 113.736 381.005 113.027 379.719 111.61C378.467 110.193 377.841 108.067 377.841 105.232V83.7267C377.841 80.3319 377.725 77.6952 377.495 75.8165C377.264 73.9379 376.638 72.4053 375.616 71.2188C374.594 69.9993 372.979 69.3895 370.771 69.3895C366.354 69.3895 363.438 70.9056 362.02 73.9379C360.636 76.9701 359.944 81.3207 359.944 86.9896V105.232C359.944 108.034 359.301 110.16 358.016 111.61C356.763 113.027 355.099 113.736 353.022 113.736C350.979 113.736 349.298 113.027 347.98 111.61C346.694 110.16 346.052 108.034 346.052 105.232V66.621C346.052 64.0831 346.628 62.155 347.782 60.8367C348.969 59.5183 350.518 58.8591 352.429 58.8591C354.275 58.8591 355.807 59.4854 357.027 60.7378C358.279 61.9573 358.906 63.6547 358.906 65.83V67.1154C361.246 64.3138 363.751 62.2539 366.42 60.9355C369.09 59.6172 372.056 58.958 375.319 58.958C378.714 58.958 381.631 59.6337 384.07 60.985C386.509 62.3363 388.519 64.3798 390.101 67.1154C392.375 64.3468 394.814 62.3033 397.418 60.985C400.022 59.6337 402.906 58.958 406.07 58.958C409.761 58.958 412.942 59.6831 415.612 61.1333C418.281 62.5835 420.275 64.6599 421.594 67.3625C422.747 69.8015 423.324 73.6412 423.324 78.8817V105.232C423.324 108.067 422.681 110.193 421.396 111.61C420.11 113.027 418.413 113.736 416.304 113.736C414.26 113.736 412.579 113.027 411.261 111.61C409.976 110.16 409.333 108.034 409.333 105.232V82.5402C409.333 79.6398 409.201 77.3162 408.937 75.5693C408.707 73.8225 408.047 72.3558 406.96 71.1693C405.872 69.9828 404.224 69.3895 402.016 69.3895C400.236 69.3895 398.539 69.9169 396.924 70.9716C395.342 72.0262 394.106 73.4435 393.216 75.2233C392.227 77.4974 391.733 81.5184 391.733 87.2863Z" fill="#04245E"/>
<path d="M470.538 106.122C467.275 108.66 464.111 110.572 461.046 111.857C458.013 113.11 454.602 113.736 450.812 113.736C447.351 113.736 444.302 113.06 441.666 111.709C439.062 110.325 437.051 108.462 435.634 106.122C434.217 103.782 433.508 101.244 433.508 98.5088C433.508 94.8174 434.678 91.6698 437.018 89.066C439.359 86.4623 442.572 84.7155 446.659 83.8256C447.516 83.6278 449.642 83.1829 453.036 82.4907C456.431 81.7986 459.332 81.1724 461.738 80.6121C464.177 80.0188 466.813 79.3102 469.648 78.4862C469.483 74.9266 468.758 72.3229 467.473 70.6749C466.22 68.994 463.6 68.1536 459.612 68.1536C456.184 68.1536 453.597 68.6315 451.85 69.5873C450.136 70.5431 448.653 71.9768 447.401 73.8884C446.181 75.8 445.308 77.069 444.78 77.6952C444.286 78.2885 443.198 78.5851 441.517 78.5851C440.001 78.5851 438.683 78.1072 437.562 77.1514C436.475 76.1626 435.931 74.9102 435.931 73.394C435.931 71.021 436.771 68.7139 438.452 66.4727C440.133 64.2314 442.753 62.3857 446.313 60.9355C449.872 59.4854 454.305 58.7603 459.612 58.7603C465.544 58.7603 470.208 59.4689 473.603 60.8861C476.998 62.2704 479.387 64.4786 480.771 67.5109C482.189 70.5431 482.897 74.5641 482.897 79.5739C482.897 82.7379 482.881 85.4241 482.848 87.6323C482.848 89.8406 482.831 92.296 482.798 94.9987C482.798 97.5365 483.21 100.19 484.034 102.958C484.891 105.694 485.32 107.457 485.32 108.248C485.32 109.632 484.661 110.901 483.342 112.055C482.057 113.176 480.59 113.736 478.942 113.736C477.558 113.736 476.19 113.093 474.839 111.808C473.488 110.489 472.054 108.594 470.538 106.122ZM469.648 86.5941C467.67 87.3192 464.786 88.0938 460.996 88.9177C457.239 89.7087 454.635 90.302 453.185 90.6975C451.735 91.0601 450.35 91.8016 449.032 92.9222C447.714 94.0099 447.054 95.5425 447.054 97.52C447.054 99.5635 447.829 101.31 449.378 102.76C450.927 104.178 452.954 104.886 455.459 104.886C458.129 104.886 460.584 104.31 462.825 103.156C465.099 101.969 466.764 100.453 467.819 98.6077C469.038 96.5642 469.648 93.2024 469.648 88.5222V86.5941Z" fill="#04245E"/>
<path d="M559.329 89.6099C559.329 91.917 558.752 94.4219 557.599 97.1245C556.478 99.7942 554.698 102.431 552.26 105.035C549.821 107.605 546.706 109.698 542.916 111.313C539.125 112.928 534.709 113.736 529.666 113.736C525.843 113.736 522.366 113.373 519.235 112.648C516.104 111.923 513.253 110.802 510.682 109.286C508.144 107.737 505.804 105.71 503.661 103.205C501.75 100.931 500.118 98.3934 498.767 95.5919C497.416 92.7574 496.394 89.7417 495.702 86.5447C495.043 83.3477 494.713 79.9529 494.713 76.3604C494.713 70.5266 495.554 65.3026 497.234 60.6884C498.948 56.0741 501.387 52.1355 504.551 48.8726C507.715 45.5767 511.423 43.0718 515.675 41.3579C519.927 39.644 524.459 38.7871 529.271 38.7871C535.137 38.7871 540.361 39.9572 544.943 42.2972C549.524 44.6373 553.034 47.5377 555.473 50.9984C557.912 54.4261 559.131 57.6726 559.131 60.7378C559.131 62.4187 558.538 63.9019 557.352 65.1873C556.165 66.4727 554.731 67.1154 553.051 67.1154C551.172 67.1154 549.755 66.6704 548.799 65.7805C547.876 64.8906 546.838 63.358 545.684 61.1827C543.773 57.5902 541.515 54.9041 538.911 53.1243C536.34 51.3445 533.16 50.4546 529.37 50.4546C523.338 50.4546 518.526 52.7452 514.933 57.3265C511.374 61.9078 509.594 68.4172 509.594 76.8547C509.594 82.4907 510.385 87.1874 511.967 90.9447C513.549 94.6691 515.79 97.4541 518.691 99.2998C521.591 101.146 524.986 102.068 528.875 102.068C533.094 102.068 536.653 101.03 539.554 98.9537C542.487 96.8444 544.695 93.7627 546.179 89.7087C546.805 87.7971 547.579 86.248 548.502 85.0615C549.425 83.842 550.908 83.2323 552.952 83.2323C554.698 83.2323 556.198 83.842 557.451 85.0615C558.703 86.281 559.329 87.7971 559.329 89.6099Z" fill="#04245E"/>
<path d="M584.79 46.9939V67.0165C586.504 65.0389 588.168 63.4734 589.783 62.3198C591.431 61.1663 593.244 60.3093 595.222 59.749C597.199 59.1558 599.325 58.8591 601.599 58.8591C605.027 58.8591 608.059 59.5842 610.696 61.0344C613.365 62.4846 615.458 64.594 616.974 67.3625C617.93 68.9775 618.573 70.7903 618.903 72.8008C619.232 74.7783 619.397 77.069 619.397 79.6727V105.529C619.397 108.232 618.771 110.275 617.518 111.659C616.299 113.044 614.667 113.736 612.624 113.736C608.174 113.736 605.95 111 605.95 105.529V82.7379C605.95 78.4203 605.307 75.1079 604.022 72.8008C602.736 70.4607 600.297 69.2906 596.705 69.2906C594.299 69.2906 592.123 69.9828 590.179 71.3671C588.267 72.7184 586.833 74.5806 585.878 76.9536C585.153 78.9641 584.79 82.5402 584.79 87.6818V105.529C584.79 108.199 584.18 110.242 582.961 111.659C581.774 113.044 580.11 113.736 577.968 113.736C573.518 113.736 571.293 111 571.293 105.529V46.9939C571.293 44.2583 571.87 42.2148 573.024 40.8635C574.21 39.4792 575.858 38.7871 577.968 38.7871C580.11 38.7871 581.774 39.4792 582.961 40.8635C584.18 42.2478 584.79 44.2913 584.79 46.9939Z" fill="#04245E"/>
<path d="M670.467 89.6099H644.067C644.1 92.675 644.709 95.3777 645.896 97.7178C647.115 100.058 648.714 101.821 650.692 103.008C652.702 104.194 654.91 104.787 657.316 104.787C658.931 104.787 660.398 104.606 661.716 104.244C663.068 103.848 664.37 103.255 665.622 102.464C666.874 101.64 668.028 100.766 669.083 99.8436C670.137 98.9208 671.505 97.6683 673.186 96.0863C673.878 95.493 674.867 95.1964 676.152 95.1964C677.537 95.1964 678.657 95.5754 679.514 96.3335C680.371 97.0916 680.8 98.1627 680.8 99.547C680.8 100.766 680.322 102.2 679.366 103.848C678.41 105.463 676.96 107.029 675.015 108.545C673.104 110.028 670.681 111.264 667.748 112.253C664.847 113.241 661.502 113.736 657.712 113.736C649.044 113.736 642.303 111.264 637.491 106.32C632.679 101.376 630.273 94.6691 630.273 86.1986C630.273 82.2106 630.867 78.5192 632.053 75.1244C633.24 71.6967 634.97 68.7633 637.244 66.3243C639.518 63.8854 642.32 62.0232 645.649 60.7378C648.978 59.4194 652.669 58.7603 656.723 58.7603C661.996 58.7603 666.512 59.8809 670.269 62.1221C674.059 64.3303 676.894 67.1978 678.773 70.7244C680.651 74.251 681.591 77.8435 681.591 81.502C681.591 84.8967 680.618 87.105 678.674 88.1267C676.729 89.1155 673.994 89.6099 670.467 89.6099ZM644.067 81.9469H668.539C668.209 77.3326 666.957 73.8884 664.781 71.6143C662.639 69.3071 659.805 68.1536 656.278 68.1536C652.916 68.1536 650.148 69.3236 647.972 71.6637C645.83 73.9708 644.528 77.3986 644.067 81.9469Z" fill="#04245E"/>
<path d="M741.411 97.0256C741.411 98.7065 740.9 100.503 739.879 102.414C738.89 104.326 737.357 106.155 735.281 107.902C733.237 109.616 730.65 111 727.519 112.055C724.388 113.11 720.861 113.637 716.939 113.637C708.6 113.637 702.091 111.214 697.411 106.37C692.731 101.492 690.391 94.9657 690.391 86.7919C690.391 81.2548 691.462 76.3604 693.604 72.1086C695.746 67.8569 698.845 64.5775 702.899 62.2704C706.953 59.9303 711.797 58.7603 717.433 58.7603C720.927 58.7603 724.124 59.2711 727.025 60.2928C729.958 61.3146 732.43 62.6329 734.44 64.2479C736.484 65.8629 738.033 67.5933 739.088 69.439C740.175 71.2517 740.719 72.9491 740.719 74.5311C740.719 76.1461 740.109 77.5139 738.89 78.6345C737.703 79.7551 736.253 80.3154 734.539 80.3154C733.419 80.3154 732.479 80.0353 731.721 79.475C730.996 78.8817 730.172 77.9424 729.249 76.657C727.601 74.1521 725.871 72.2734 724.058 71.021C722.278 69.7686 720.004 69.1423 717.236 69.1423C713.248 69.1423 710.034 70.7079 707.595 73.839C705.156 76.9371 703.937 81.1888 703.937 86.5941C703.937 89.132 704.25 91.472 704.876 93.6144C705.502 95.7238 706.409 97.5365 707.595 99.0526C708.782 100.536 710.215 101.673 711.896 102.464C713.577 103.222 715.423 103.601 717.433 103.601C720.136 103.601 722.443 102.975 724.355 101.722C726.299 100.47 728.013 98.5582 729.496 95.9874C730.32 94.4713 731.21 93.2848 732.166 92.4279C733.122 91.5709 734.292 91.1425 735.676 91.1425C737.324 91.1425 738.692 91.7687 739.78 93.0211C740.867 94.2736 741.411 95.6084 741.411 97.0256Z" fill="#04245E"/>
<path d="M782.989 107.556L771.074 87.9784L763.757 94.8998V105.628C763.757 108.232 763.065 110.242 761.681 111.659C760.33 113.044 758.764 113.736 756.984 113.736C754.908 113.736 753.276 113.044 752.09 111.659C750.903 110.275 750.31 108.232 750.31 105.529V47.9827C750.31 44.9834 750.887 42.7092 752.04 41.1602C753.194 39.5781 754.842 38.7871 756.984 38.7871C759.061 38.7871 760.709 39.4957 761.928 40.913C763.148 42.3302 763.757 44.4231 763.757 47.1917V79.9199L778.935 64.0007C780.814 62.0232 782.247 60.6719 783.236 59.9468C784.225 59.2217 785.428 58.8591 786.845 58.8591C788.526 58.8591 789.927 59.403 791.047 60.4906C792.168 61.5453 792.728 62.8801 792.728 64.4951C792.728 66.4727 790.899 69.1094 787.241 72.4053L780.072 78.9806L793.915 100.734C794.937 102.349 795.662 103.584 796.09 104.441C796.552 105.265 796.782 106.056 796.782 106.814C796.782 108.957 796.189 110.654 795.002 111.907C793.849 113.126 792.316 113.736 790.405 113.736C788.757 113.736 787.488 113.291 786.598 112.401C785.708 111.511 784.505 109.896 782.989 107.556Z" fill="#04245E"/>
<g clip-path="url(#clip0_447_47)">
<path d="M67.5 135C104.779 135 135 104.779 135 67.5C135 30.2208 104.779 0 67.5 0C30.2208 0 0 30.2208 0 67.5C0 104.779 30.2208 135 67.5 135Z" fill="#E6EAFF"/>
<mask id="mask0_447_47" style="mask-type:luminance" maskUnits="userSpaceOnUse" x="0" y="0" width="135" height="135">
<path d="M67.5 135C104.779 135 135 104.779 135 67.5C135 30.2208 104.779 0 67.5 0C30.2208 0 0 30.2208 0 67.5C0 104.779 30.2208 135 67.5 135Z" fill="white"/>
</mask>
<g mask="url(#mask0_447_47)">
<path d="M137.135 51.272H-4.27051V89.2333H137.135V51.272Z" fill="#FF6E80"/>
<path d="M137.041 109.993C136.092 116.541 128.309 121.714 118.724 121.927C101.95 121.927 85.1522 121.927 68.378 121.927C67.7611 121.927 67.0968 121.975 66.4799 121.595C65.7207 122.046 64.8666 121.927 64.0599 121.927C54.7831 121.927 45.5063 121.927 36.2295 121.927H14.1645C4.31824 121.714 -3.65364 116.257 -4.24678 109.447C-4.24678 103.231 -4.27051 95.6152 -4.27051 88.2602C-4.27051 86.1486 -4.27051 84.1082 -4.27051 82.1864C-4.27051 80.1223 -4.27051 78.1768 -4.27051 76.421V67.5713C0.901723 61.3789 11.5546 60.9043 17.7708 64.7005C18.8385 65.3648 19.9061 66.0291 21.1399 66.5274C26.407 68.7101 32.3622 68.1407 37.226 65.0326C41.9949 61.972 48.6618 61.4026 54.1899 63.5616C55.6135 64.1073 56.7286 64.914 57.9861 65.6258C59.9553 66.7409 62.1381 67.5001 64.6768 67.7137C65.3174 67.7611 67.6188 67.7374 68.1645 67.7137C71.059 67.4764 73.5739 66.5985 75.5906 65.175C81.3323 61.1179 90.6328 61.5687 95.639 65.0326C97.5845 66.385 99.9333 67.3341 102.709 67.6662C107.336 68.2119 111.227 67.1917 114.548 64.9852C119.317 61.8297 126.032 61.5212 131.275 63.5142C133.624 64.4158 135.617 65.6495 136.993 67.4052C137.041 74.1196 137.041 87.2875 137.041 101.499C137.041 104.465 137.041 107.336 137.041 109.993Z" fill="#F4AEAB"/>
<path d="M-4.24678 131.204C-4.24678 121.12 -4.27051 109.091 -4.27051 98.1302C-4.27051 94.8323 -4.27051 91.653 -4.27051 88.6398C-4.27051 85.3894 -4.27051 92.2224 -4.27051 89.4939V82.305C0.901723 72.6249 11.5546 71.8894 17.7708 77.8446C18.8385 78.8648 19.9061 79.9087 21.1399 80.6917C26.407 84.1082 32.3622 83.2303 37.226 78.3665C41.9949 73.5739 48.6618 72.6961 54.1899 76.0889C55.6135 76.9667 56.7286 78.2242 57.9861 79.3156C59.9553 81.0475 62.1381 82.2576 64.6768 82.5897C65.3174 82.6609 67.6188 82.6372 68.1645 82.566C71.059 82.1864 73.5739 80.834 75.5906 78.6038C81.3323 72.269 90.6328 72.9808 95.639 78.3903C97.5845 80.5019 99.9333 81.9729 102.709 82.4948C107.336 83.3727 111.227 81.7356 114.548 78.3191C119.317 73.3841 126.032 72.9096 131.275 76.0414C133.624 77.4412 135.617 79.363 136.993 82.1152C137.041 91.8903 137.041 101.428 137.041 118.867C137.041 123.493 137.041 128.001 137.041 132.129C136.092 142.379 128.309 150.422 118.724 150.778C101.95 150.778 85.1522 150.778 68.378 150.778C67.7611 150.778 67.0968 150.873 66.4799 150.232C65.7207 150.944 64.8666 150.778 64.0599 150.778C54.7831 150.778 45.5063 150.778 36.2295 150.778H14.1645C4.31824 150.422 -3.65364 141.928 -4.24678 131.275" fill="#FFDED5"/>
</g>
</g>
<defs>
<clipPath id="clip0_447_47">
<rect width="135" height="135" fill="white"/>
</clipPath>
</defs>
</svg>
